/* XPM */
static char *_fc15ed975c64159bd7df948e9c7e65duAb1bkPJb6rhgH0u[] = {
/* columns rows colors chars-per-pixel */
"32 32 14 1 ",
"  c None",
". c black",
"X c #101010",
"o c #222222",
"O c gray19",
"+ c #505050",
"@ c gray44",
"# c #659394",
"$ c #3696EF",
"% c gray69",
"& c #90C0C0",
"* c #A8E0E0",
"= c #C0FFFF",
"- c white",
/* pixels */
"          .       .             ",
"         .-.     .%.            ",
"        .o-.     .%...          ",
"       .ooo.    .....-.  ..     ",
"      .o=o*O.   .++...-. .%.    ",
"     .o=o*&o.  .++O+O.--..%.    ",
"    .O=*o*&&o..O+OOOOOo--.%.    ",
"   .O=**o*&&oo.+O+##ooOo++..    ",
"   .o=*o**&&&oOOO&&..o+o$+@@.   ",
"  .O=**o*&&&O++OO##.&.+Oo$O+@.. ",
"  .o=**o*&&.+O+O&&&o..OOO.+O+@@.",
" .o==**o*..O++OO##&OO+..+O.-O+@.",
" .o=*..o.++OOOXO**=+OO. .++O.+. ",
" .o=. ...OOO..XO#&&+ooO. ... .  ",
" .o.   .+O+..XOO*===O.oO.       ",
" .o.  .+++O..XOo&&&*oo.oO..     ",
"  .  .-O+OO..oOOo**==o.XoOO...  ",
"    .-.+O-. .XOoo#&&*O..OXo%%.  ",
"     .-O.-..XooOo***=Oo.-oo..   ",
"     .-. ..XoOooo#&&*Ooo.%.%.   ",
"..    . ..XoOooOo****ooOo...    ",
".o......XXoOOOOoo#&&&oOOOo.     ",
".XooooooX.O+OOoOo&&*&ooooOo.    ",
" .XoooXX.++O+OOo###&XoooooX.    ",
"  .XXXXX.O++OoO.#&&...XooXX.    ",
"   ..XXX.OOOOo..##...XXXooo.    ",
"  .......O+OOO%.......XoooOo..  ",
"  ......OOO+Oo.........XoOoOo%. ",
"   ....O++OOo.....   ..XoOOo..  ",
"    ..+O+OOOO..       .O%.oO%.  ",
"     .-.-O.%O.         .. ....  ",
"     .........                  "
};
