/* XPM */
static char *_0a77687b8ef44e39a9d6ac8172fe617VF9jUOE3sOMMT3YS[] = {
/* columns rows colors chars-per-pixel */
"32 32 178 2 ",
"   c None",
".  c #23132F",
"X  c #3F113C",
"o  c #452F34",
"O  c #432F3E",
"+  c #4D3C3B",
"@  c #51313C",
"#  c #1F4F27",
"$  c #1D542A",
"%  c #125E2B",
"&  c #185F27",
"*  c #135E31",
"=  c #1B5A36",
"-  c #1F543F",
";  c #26472F",
":  c #34442D",
">  c #225929",
",  c #2B4B3C",
"<  c #2A4636",
"1  c #314439",
"2  c #2A573C",
"3  c #265936",
"4  c #0E692B",
"5  c #166920",
"6  c #1B6B26",
"7  c #12632A",
"8  c #1B632C",
"9  c #156B2D",
"0  c #186626",
"q  c #1F7429",
"w  c #146430",
"e  c #1A6433",
"r  c #166D33",
"t  c #1F653B",
"y  c #146E3C",
"u  c #187738",
"i  c #226B3C",
"p  c #297736",
"a  c #337831",
"s  c #414234",
"d  c #341A46",
"f  c #393E40",
"g  c #4B1853",
"h  c #441F5C",
"j  c #630D50",
"k  c #4D2F4E",
"l  c #443948",
"z  c #553748",
"x  c #442D56",
"c  c #453356",
"v  c #4A3554",
"b  c #473559",
"n  c #49365A",
"m  c #4C3E5B",
"M  c #473B53",
"N  c #513C5C",
"B  c #503252",
"V  c #5B1E67",
"C  c #701665",
"Z  c #79156B",
"A  c #7E1B7A",
"S  c #4E3C6A",
"D  c #523B64",
"F  c #5B3A64",
"G  c #56386A",
"H  c #562774",
"J  c #543671",
"K  c #663C72",
"L  c #7B397D",
"P  c #1D5942",
"I  c #1C5C52",
"U  c #2A4F42",
"Y  c #314343",
"T  c #384747",
"R  c #2C544C",
"E  c #285743",
"W  c #345444",
"Q  c #384257",
"!  c #375355",
"~  c #266444",
"^  c #484648",
"/  c #534449",
"(  c #454255",
")  c #474759",
"_  c #554259",
"`  c #4A476B",
"'  c #53466B",
"]  c #564767",
"[  c #475360",
"{  c #4B526B",
"}  c #585063",
"|  c #4C4A72",
" . c #5F4876",
".. c #66436D",
"X. c #614A69",
"o. c #634475",
"O. c #664C74",
"+. c #6A4C75",
"@. c #66447B",
"#. c #6C417B",
"$. c #6E4C7D",
"%. c #694776",
"&. c #764A75",
"*. c #7C4C76",
"=. c #71457D",
"-. c #7A427B",
";. c #7D4E7C",
":. c #714372",
">. c #6D5479",
",. c #745479",
"<. c #80075F",
"1. c #9F0F7D",
"2. c #8D1275",
"3. c #941178",
"4. c #911176",
"5. c #A80073",
"6. c #81487C",
"7. c #642D8B",
"8. c #6D2682",
"9. c #712484",
"0. c #7B3B82",
"q. c #773E84",
"w. c #7633A3",
"e. c #6E4B86",
"r. c #744582",
"t. c #754B84",
"y. c #7A4C8C",
"u. c #774B86",
"i. c #735086",
"p. c #76548C",
"a. c #7C5885",
"s. c #A60D83",
"d. c #AD0985",
"f. c #BF008E",
"g. c #A1168D",
"h. c #BB0091",
"j. c #B61398",
"k. c #932295",
"l. c #A61EA0",
"z. c #B71DA7",
"x. c #8E31B1",
"c. c #8939BB",
"v. c #8739BA",
"b. c #9531B4",
"n. c #A229AA",
"m. c #A828AE",
"M. c #A72FBD",
"N. c #C60083",
"B. c #C20094",
"V. c #C91AB2",
"C. c #C41AB5",
"Z. c #E600A2",
"A. c #E900B5",
"S. c #C625BE",
"D. c #9E37C9",
"F. c #BF2ECB",
"G. c #B52EC4",
"H. c #D821C9",
"J. c #D92BD7",
"K. c #DB2AD8",
"L. c #C035DD",
"P. c #E62ADE",
"I. c #EB1AE9",
"U. c #F614FA",
"Y. c #CC34E3",
"T. c #EC29E3",
"R. c #F328F8",
"E. c #E332F1",
"W. c #ED30F7",
"Q. c #954FC3",
"!. c #AA4ED1",
"~. c #A46BCD",
"^. c #C74DE2",
"/. c #E14BF0",
"(. c #EE4AF9",
"). c #F449FC",
"_. c #CF69E6",
"`. c #E968F5",
/* pixels */
"                  Q.Q.      w.7.k.l.d                           ",
"              w.w.~.c.w.  H w.D.W.w.H d           d             ",
"            h H w.v.v.7.h w.h _./.~.7.w.H H H d . h H H h       ",
"          d d d 7.w.w.7.h w.H /.A Q.c.w.H w.7.d d H w.w.H       ",
"            . . H H 7.H d H c./.k.H Q.H w.w.w.d 7.w.D.Q.w.H     ",
"          d d d d H d . d A w.H (.!.D.w.D.d w.H w.D.d ~.h w.    ",
"        d . . . . d . d x k.w.H F.W.F.x ~.w.w.d w.w.H ~.Q.c.    ",
"        d . d d . d d w.x.K.H H d h k.L.H d 7.. H D.Q.x c.w.    ",
"      d d d d . . d d w.L._.Q.H Z.. z.x.w.H d <.7.7.v.H w.d     ",
"      H d d . . . d d D.V J.w.s.5 n.Z.H H d . 5.d H H d d       ",
"    w.w.H H 5.. . H D.~.Q.H s.5 5 5 n.4.d . j Z d d d d d       ",
"c.H c.c.w.d d Z d H D.d w.1.9 q 5 6 q H.V.j <.Z . d d . .       ",
"c.w.h ~.c.w.. . l.C.D.b.5.0 7 4 0 9 a p I.C.d d . . . 2.d       ",
"  ~.H ~.h H . . H w.A.s.> y y u 6 p 9 e 8 W.d d d d C 2.d       ",
"    w.c.H w.d h H w.1.s.r r 7 4 7 % 8 t 3 n.L.. d H m.H.w.d     ",
"      w.w.w.h H w.d 2.8 e % w 8 e * * P I & P.g . 9.`.Q.~.w.d   ",
"      H w.7.H.H H d n.* 9 7 & 8 = w P < U W W.W.k.E.!.h ~.c.w.  ",
"      d c.c.L.n.7.g C > t & & > = 2 < ; : < k.R.k.w.w.k.Q.h c.  ",
"      c.Q.~.Q.).J.g $ $ i > ; 2 U U Y < s 1 o J.g d K.Y.Q.H w.  ",
"      c.H Q.H Q.W.B.2 3 3 ~ i R ! 1 T ^ + l o ^.5.2.z.c.c.c.d   ",
"    h ~.w.Q.w.Q.c.B.R R , < Y Y ) T ^ / / z @ /.N.j d d w.d d   ",
"    d Q.Q.w.Q.c.H C f ! T Q Q ( ) l ^ z z l k ^.j . . d d d d   ",
"      w.Q.H Q.w.H C ^ [ [ ) m ` c c v _ _ b x J.g d . . .       ",
"      H w.Q.w.H d C ( ) m v c n v v ( { ` b n T.d . X d d       ",
"      . d H 9.P.V.C N l M N n c D | { | m S F R.2.<.<..   d     ",
"      d x w.T.L.P.d.] ] } ] ' ] G J ` ' ] G K U.Z d d d         ",
"      d h J.g.v.V A.F ] F G X.o.o.@. . .%.@.O.I.. . . d d       ",
"    d d H w.v.w.H h.K ....o.O.O.@.K >.O.i.+.,.S.d d . d d d     ",
"  h h H H H H h h s.:.$.$.t.r.e.e.#.=.&.a.:.,.n.h d d h d d     ",
"7.7.7.w.w.v.v.w.7.z.L t.y.t.e.y.t.u.a.a.*.-.&.n.w.w.w.7.7.7.7.  ",
"7.h h H H H H h h s.r.t.0.-.r.p.-.u.u.6.;.6.6.T.h h H H H H h d ",
"7.h H H H h h h h g q.L L =.-.p.r.r.t.6.;.;.;.w.j.H H h h h h d "
};
