/* XPM */
static char *_5a0e9b04738453aeebe22cbb1cb0577dOckOrEB7cEQAmTh[] = {
/* columns rows colors chars-per-pixel */
"32 32 12 1 ",
"  c #200000",
". c #300000",
"X c #400000",
"o c #600000",
"O c #800000",
"+ c #A00000",
"@ c #C00000",
"# c red",
"$ c #FF4000",
"% c #FF8000",
"& c #FFC000",
"* c yellow",
/* pixels */
" XoOO#@OXXX X .XX+oOo.+oOX@ XOO@",
"XXooXOo@OOO.XX X.oo+o..XX .. XoO",
"XO#+.+X@#..X. X+X.O%+oX...@X XoO",
"O#%X...O.@X.o oo X@ o$.. O .XoOX",
"#@OOXOOXOO@Xo X XX$++o o.@XX.oO+",
"OOXX@X+@XO.XX XX+%XXX +X.+...X&$",
"XXoO@ XO X @@#+X+ X  ooX.##.XXOo",
" .Xo+@O@@X XOO%+XO   @OXO.O@OXOX",
".oOoO XX X  %#+X Xo#+ o O.XXXOX ",
"XO% @oX   OO&OXX X O#  O. OX#+..",
"X+$ooo+O X %OXX..  X@+.+XOO.#+X ",
".O#    O  O#@...o oX  X +#O%+X+X",
"XXO@#OooX$%O@ X.+ X  OXX$ #%X oX",
".XXo#o@ X%O OXX oX X XXO O@X  +o",
"XOO  OO%+%X X oXo oXO +$ #@  XOo",
"O+#   O@+$OXX  O  o$O.++%%   o# ",
"+@%OXOOO OXOOXXXOO O .  O@X X+O ",
"#$&X@%@O #O$ XOXXXX.O$##$ oXoX$O",
"O$O      o$#*%OOX+@#   @oooXoO#$",
"o@oXo+o .  O OO$O$@ . +XX  oOO@O",
" oOXo oX....o   +& . X+o+ oO+ @X",
"XXX+o.o.Xoo.XXO &O .  ooXX O#@.X",
"..X$%. o +X.X.O@*.O       oO# OX",
" X.XXo.oooXO  #%O.OOX O  OO#@OOO",
" .Xoooo.o +O#OO  . X@&OXOXO@O o.",
". .XX$+XOO+#%....   XO*XX@@o$$X ",
"..X +oOX  #+O .   oo O&@+Oo$+ooX",
"XXoo+oo %+++ . XO XO#%  OoOoOoXO",
"oO+++OoX%$XOXoOXOoXO#X$Xo$$+ooO#",
"#O@ XX  +  OO o ooX o#%%$oo o+#@",
"%&$O#Oo%#oOOO@XOoo$@Oo##oXO@O@OO",
"OOoO@#$#oOX. X XXO%#@@OOoX XooOo"
};
