/* XPM */
static char *_5238f4a20b140d68a85d7dbc515cfafeeDcwgojkyhrciqb[] = {
/* columns rows colors chars-per-pixel */
"32 32 114 2 ",
"   c None",
".  c black",
"X  c #070300",
"o  c #603D00",
"O  c #753500",
"+  c #7E7100",
"@  c #B81200",
"#  c #9B2900",
"$  c #B82F00",
"%  c #AF3700",
"&  c #A73D00",
"*  c #DC0000",
"=  c #DC0D00",
"-  c #C01100",
";  c #DC1800",
":  c #DB1D00",
">  c #F60101",
",  c #F60700",
"<  c #F80200",
"1  c red",
"2  c #FE0100",
"3  c #FF0700",
"4  c #F30800",
"5  c #FF0B00",
"6  c #E51600",
"7  c #EC1801",
"8  c #FC1D00",
"9  c #FF1F00",
"0  c #C42D00",
"q  c #CF2F00",
"w  c #D62100",
"e  c #D62300",
"r  c #D42600",
"t  c #D82200",
"y  c #DC2100",
"u  c #D22A00",
"i  c #D62B00",
"p  c #D22F00",
"a  c #D22F01",
"s  c #DC2B00",
"d  c #CF3700",
"f  c #CA3800",
"g  c #CA3F04",
"h  c #DC3500",
"j  c #D23F06",
"k  c #E32300",
"l  c #E52600",
"z  c #E82100",
"x  c #E02D00",
"c  c #E03000",
"v  c #E53700",
"b  c #8E4F00",
"n  c #964900",
"m  c #865700",
"M  c #925200",
"N  c #935500",
"B  c #A4510B",
"V  c #836300",
"C  c #846000",
"Z  c #816900",
"A  c #8E7303",
"S  c #867B00",
"D  c #B07300",
"F  c #B86D14",
"G  c #AB7811",
"H  c #B47919",
"J  c #C44A07",
"K  c #CB4800",
"L  c #CA4E00",
"P  c #CA4F00",
"I  c #CF4E0C",
"U  c #DC4200",
"Y  c #DC4800",
"T  c #DC4E00",
"R  c #C75400",
"E  c #C45B00",
"W  c #C0540B",
"Q  c #D15B00",
"!  c #CE5911",
"~  c #E95E0B",
"^  c #F25B00",
"/  c #F2510C",
"(  c #C06A00",
")  c #DC6A00",
"_  c #DC6D00",
"`  c #DC7500",
"'  c #DC6E18",
"]  c #FF6000",
"[  c #DF562B",
"{  c #DC4E4E",
"}  c #3DB000",
"|  c #608300",
" . c #6D9C05",
".. c #868600",
"X. c #869200",
"o. c #B88D00",
"O. c #B0861F",
"+. c #92B30B",
"@. c #B0B000",
"#. c #B0B03D",
"$. c #DC9000",
"%. c #EF8318",
"&. c #F9831C",
"*. c #F0901C",
"=. c #C6902D",
"-. c #F2803D",
";. c #DCAF37",
":. c #F6B52B",
">. c #DCDC00",
",. c #D98354",
"<. c #E38962",
"1. c #DCDC4E",
"2. c #FFFF60",
"3. c #FFFFB0",
/* pixels */
"                                                                ",
"                                                                ",
"                                                                ",
"                                                                ",
"                                                                ",
"                                                                ",
"                            . . . . . .                         ",
"                    . . . . 1.1.:.:.=.$.. . .                   ",
"                . . @.O.@.=.;.-.3 1 9 I O.O.@.. .               ",
"            . . 2.1.O.R H p c ~ z 6 7 1 1 p @.} ... .           ",
"          X =.:.3.1.O.& ( F $.=.^ W : :.3.*.r ..D D O..         ",
"        . b ] =.<.:.#.#.#.$.J U 1 Y h i ~ =.e f T T =.O..       ",
"      . n - 9 ] { O.:.; +.; ^ i y s O.$.q T O.y = T <.G Q .     ",
"      . N > T T * T A } Z =.:.:.U _ O.@...@.$.T l ! 3.,.L .     ",
"    . ! ! <.O.T B 0 M  .O.#.1.3.:.; s @.} ..$.O.) [ :.{ @ m .   ",
"    . %.x 3.#.@.| K O.; $ e =.:.:.$.g f u p s ; c 5 I O.L n .   ",
"    . :.*.x I O.D D O.O.o.u q =.$.n o # O n n I &.O.&.O.D T .   ",
"    . m $.:.e < k D =.#.~ E J ] T ] . . . . . m o m o n o m .   ",
"      . $.` v , 1 v <.3.*.u $.S * T $..       . . . . . . .     ",
"      . m $.$.T T 1 I :.*.C X.S T ] T O..                       ",
"        . n T $.T ` e ; ; V + $.O.O.$.O.] .                     ",
"          . o m $.$.O.@...% a t 4 ~ I E @....                   ",
"            . . o m $.@.@...o.I / -.' O.#.:.o..                 ",
"                . . o n m m >.=.:.1.:.#.n m o .                 ",
"                    . . . . o n n m n m . . .                   ",
"                          . . . . . . .                         ",
"                                                                ",
"                                                                ",
"                                                                ",
"                                                                ",
"                                                                ",
"                                                                "
};
