/* XPM */
static char *result[] = {
/* columns rows colors chars-per-pixel */
"32 32 6 1 ",
"  c #101010",
". c #202020",
"X c gray19",
"o c gray25",
"O c #505050",
"+ c #606060",
/* pixels */
"OoooX X.o . oOX  XXooX.X+o   .Xo",
"oXoX.. ooX.oXoo+ .XXXo +oOo.  Xo",
"oX..  .+OoXoooXoX.  .  XOooX.X.X",
"X. +o .O+ooXoXXOX..  . .XXXo . .",
" .+oOo..ooXoXooo.  XOoXX.XoX ...",
".Xo+oo ..XoOoo.   XOoOoOo.. .oXX",
".ooXoXo X.oooo  . OOOoo+X . OoOo",
"X.ooooo. ..oOo.  oO+ooOo+o  oOoo",
". XoXX   oo.o.  .XoXoXo+oX.oooXX",
" . X  .oXXo.. .Oo.XoXoX.. XoX.. ",
"X .. ooXooXo..ooO. Xo . o  .   +",
"oo.  XXoXX. . oOo .. . oOX.   .X",
"Xoo .. . .   ..oo  ..o+oXo .  .O",
"+Oo.  . .  +oXo. .  ooOXoX.  .Xo",
"O+oO .   .OoOoX+X ..o+oo. . X oo",
"+OoO. .. .OXooXo..X  oOX   .  Xo",
".oO. ooX..ooXoOo Xo. Xo..   . .X",
" .. OoXo. ..oOO .ooo ..XX. .   .",
". oOo+ooX. .X. .XoXo. ..X  . . .",
" .ooOoOoX   . ooOoXo.    .  . . ",
" oOoO+OXo.o. .oXoOXX . XoOo. .  ",
"o.oooXOoX.ooX.XXOXo. .oo+oXX. . ",
"oO.o+o+X. o+o.  ..   .XoOXXo   .",
"Oo .oOXX  oOo .. .  .oXO+oOoX .X",
"oOO XoXo. .oX.    .. XX+oXo. .XX",
"oXo. . X .. o.XOoOOX.ooOoX.+o.Xo",
"XoXX  ..+Oo+XOO+oOooo..oOXXoOX o",
" . . . OoXoXXo+oOo+OoO Xo.oO+X  ",
" X.  . +ooX++Xo+O+OoOo.   +XoX..",
"ooOo. .oO+Oo. +OoOooXX . XoXX. O",
"+OOoo. XoOoo .XXooOoXo.  . .  +o",
"o+oOX ..XoX.  ..XXoXoX  ..  . oO"
};
